<svg xmlns="http://www.w3.org/2000/svg" viewBox="0 0 108.87 123.29"><defs><style>.cls-1{fill:#083831;}</style></defs><g id="Layer_2" data-name="Layer 2"><g id="Background"><path class="cls-1" d="M2.7,24.65,24.19,9.81C35.73,1.84,50-1.81,63.77.87c1.14.22,2.28.48,3.44.79A62,62,0,0,1,82.05,8c5.32,3,13.65,7.72,20,17.05a40,40,0,0,1,4.72,9.09,37,37,0,0,1,1.95,15c-1.16,12.47-10,20.75-12.5,23.1C84.08,83.64,65.73,87.68,65.73,87.68h0L48.68,75.08,75.5,60.23l5.24-5.56a23,23,0,0,0,2.05-14.45C80.7,29.8,71.15,24.6,66.47,22.05c-3.14-1.7-7.54-4-13.35-3.7a22.37,22.37,0,0,0-8.89,2.59A104.62,104.62,0,0,0,22.72,35l-5.93,4.45Z"/><path class="cls-1" d="M62,48.52,29.09,67.77A14.05,14.05,0,0,0,21.88,79.7a13.65,13.65,0,0,0,.47,3.53c3.45,12.77,25.58,20,25.58,20h0a15.81,15.81,0,0,0,7.88,1.94,17.55,17.55,0,0,0,7-1.94A61.91,61.91,0,0,0,75,95.83l9.23-8.15h0l17.8,8.9-4.45,5.19h0L78.2,115.48a42.7,42.7,0,0,1-24.93,7.81H53a49.94,49.94,0,0,1-18.42-3.72,96.6,96.6,0,0,1-17.8-10c-.82-.58-1.61-1.16-2.38-1.75C2.71,98.94-3,83.69,1.61,69.76c.32-1,.68-1.89,1.09-2.84,3.88-9,10.52-14,15.57-17.8A63.65,63.65,0,0,1,42,38h0L62,48.38Z"/></g></g></svg>