<?xml version="1.0" encoding="UTF-8"?>
<svg id="Layer_2" data-name="Layer 2" xmlns="http://www.w3.org/2000/svg" viewBox="0 0 265.34 474.15">
  <defs>
    <style>
      .cls-1 {
        fill: #e93d3d;
      }

      .cls-2 {
        fill: #feffff;
      }

      .cls-3 {
        fill: #8d9598;
      }
    </style>
  </defs>
  <g id="Layer_1-2" data-name="Layer 1">
    <path class="cls-1"
      d="m224.25,95.61v36.2c0,50.79-41.15,92-92,92s-91.94-41.21-91.94-92v-36.2l91.94-47.4.83.42,91.17,46.98Z" />
    <circle class="cls-2" cx="132.85" cy="92.61" r="22.52" />
    <path class="cls-3"
      d="m242.12,84.71l-106.23-54.7c-2.28-1.17-4.99-1.17-7.26,0L22.45,84.71l-11.5,5.93c-.94.49-1.54,1.46-1.54,2.53v22.4c0,1.57,1.27,2.84,2.84,2.84h10.2v13.4c0,41.68,23.34,78.01,57.64,96.58v27.75l12.03,11.97v-34.12c3.81,1.49,7.68,2.86,11.67,3.93v211.51l18.04,18.04,6.67,6.67v-232.59c1.25.12,2.5.12,3.75.12,2.44,0,4.82-.24,7.26-.36v218.77l23.82-23.82v-132.73l5.84-5.84v-62.58c4.23-1.49,8.4-3.27,12.39-5.3v55.5l12.03-12.03v-49.9h-.77c29.65-19.71,49.3-53.35,49.3-91.58v-13.4h10.97c1.57,0,2.84-1.27,2.84-2.84v-21.99c0-1.06-.59-2.04-1.54-2.52l-12.28-6.35Zm-17.86,47.1c0,50.98-41.44,92.29-92.55,92-50.75-.3-91.39-42.34-91.39-93.09v-35.11s88.31-45.53,88.31-45.53c2.28-1.18,4.99-1.18,7.27,0l88.36,45.53v36.2Z" />
    <path class="cls-1"
      d="m265.34,64.9v7.6c0,1.48-1.56,2.43-2.87,1.75L144.88,13.68c-.42-.18-.89-.42-1.31-.6-.3-.18-.65-.3-.95-.42-.12-.06-.3-.12-.42-.18-.24-.06-.48-.18-.77-.24-.89-.3-1.79-.6-2.68-.77-4.17-1.01-8.52-1.01-12.68,0-2.08.48-4.17,1.25-6.13,2.26L2.87,74.01c-1.31.68-2.87-.28-2.87-1.75v-7.6c0-.74.41-1.41,1.07-1.75L115.04,4.21c1.37-.71,2.8-1.31,4.23-1.85,1.55-.6,3.1-1.07,4.7-1.49.89-.18,1.79-.3,2.62-.48.83-.12,1.67-.24,2.56-.3,1.67-.12,3.39-.12,5.12-.06.6,0,1.13.06,1.67.12,1.07.06,2.14.24,3.16.42,1.49.24,2.92.6,4.29,1.01.71.24,1.43.48,2.14.71.06,0,.12.06.18.06h.06c.18.12.36.18.54.24,1.19.48,2.32.95,3.45,1.55l114.51,59c.66.34,1.07,1.01,1.07,1.75Z" />
  </g>
</svg>