<?xml version="1.0" encoding="UTF-8"?>
<svg id="Layer_2" data-name="Layer 2" xmlns="http://www.w3.org/2000/svg" viewBox="0 0 830.32 474.15">
  <defs>
    <style>
      .cls-1 {
        fill: #feffff;
      }

      .cls-2 {
        fill: #8d9598;
      }

      .cls-3 {
        fill: #e93d3d;
      }
    </style>
  </defs>
  <g id="Layer_1-2" data-name="Layer 1">
    <g>
      <polygon class="cls-3" points="352.99 171.89 352.99 359.1 290.11 359.1 290.11 94.9 352.99 171.89" />
      <polygon class="cls-3" points="554.2 63.16 554.2 322.96 491.32 246.03 491.32 63.16 554.2 63.16" />
      <polygon class="cls-2"
        points="554.2 322.96 554.2 359.1 505.97 359.1 491.32 341.18 352.99 171.89 290.11 94.9 290.11 63.16 341.86 63.16 352.99 76.79 491.32 246.03 554.2 322.96" />
      <path class="cls-3"
        d="m224.25,95.61v36.2c0,50.79-41.15,92-92,92s-91.94-41.21-91.94-92v-36.2l91.94-47.4.83.42,91.17,46.98Z" />
      <circle class="cls-1" cx="132.85" cy="92.61" r="22.52" />
      <path class="cls-2"
        d="m242.12,84.71l-106.23-54.7c-2.28-1.17-4.99-1.17-7.26,0L22.45,84.71l-11.5,5.93c-.94.49-1.54,1.46-1.54,2.53v22.4c0,1.57,1.27,2.84,2.84,2.84h10.2v13.4c0,41.68,23.34,78.01,57.64,96.58v27.75l12.03,11.97v-34.12c3.81,1.49,7.68,2.86,11.67,3.93v211.51l18.04,18.04,6.67,6.67v-232.59c1.25.12,2.5.12,3.75.12,2.44,0,4.82-.24,7.26-.36v218.77l23.82-23.82v-132.73l5.84-5.84v-62.58c4.23-1.49,8.4-3.27,12.39-5.3v55.5l12.03-12.03v-49.9h-.77c29.65-19.71,49.3-53.35,49.3-91.58v-13.4h10.97c1.57,0,2.84-1.27,2.84-2.84v-21.99c0-1.06-.59-2.04-1.54-2.52l-12.28-6.35Zm-17.86,47.1c0,50.98-41.44,92.29-92.55,92-50.75-.3-91.39-42.34-91.39-93.09v-35.11s88.31-45.53,88.31-45.53c2.28-1.18,4.99-1.18,7.27,0l88.36,45.53v36.2Z" />
      <path class="cls-2"
        d="m763.21,224.83c-15.72,20.07-33.76,38.35-52.82,55.26-2.92,2.62-26.2,17.98-26.2,21.73v2.68l-90.87,52.64v-34.18s132.67-115.88,140.77-159.94c8.1-44.12-23.7-49.72-23.7-49.72,0,0-26.74-7.92-46.15,24.41,10.54-18.64,34.72-51.51,81.28-70.74,12.92,4.23,24.89,10.72,33.17,19.47,39.6,41.98,14.71,99.86-15.48,138.39Z" />
      <path class="cls-3"
        d="m745.52,66.97c-46.57,19.23-70.74,52.1-81.28,70.74-2.86,4.94-4.7,8.87-5.72,11.25-.42.89-.66,1.55-.83,2.02-.24.48-.3.71-.3.71l-59.9-1.13s1.61-15.01,3.81-21.85c14.95-46.33,58.18-67.35,105.28-68,12.09-.18,25.96,1.91,38.94,6.25Z" />
      <path class="cls-3" d="m830.32,338.38v18.76h-236.99l90.87-52.64h112.24c18.7,0,33.88,15.18,33.88,33.88Z" />
      <g>
        <path class="cls-2" d="m339.12,458.88v9.96h-47.18v-79.85h12.23v69.9h34.96Z" />
        <path class="cls-2"
          d="m404.5,459.21l-.06,9.62h-51.09v-79.85h51.09v9.62h-38.8v25.3h31.22v9.29h-31.22v26.03h38.86Z" />
        <path class="cls-2" d="m478.08,398.88h-26.17v69.96h-12.17v-69.96h-26.29v-9.9h64.63v9.9Z" />
        <path class="cls-2" d="m548.45,398.88h-26.17v69.96h-12.17v-69.96h-26.29v-9.9h64.63v9.9Z" />
        <path class="cls-2" d="m574.92,468.83h-12.28v-79.85h12.28v79.85Z" />
        <path class="cls-2"
          d="m665.03,388.98v79.85h-6.2c-.95,0-1.74-.17-2.37-.5-.64-.33-1.28-.87-1.93-1.61l-46.54-58.34c.07,1,.14,1.98.2,2.95s.08,1.87.08,2.73v54.77h-10.73v-79.85h6.31c1.07,0,1.87.12,2.42.36.53.24,1.13.79,1.77,1.64l46.67,58.39c-.12-1.08-.2-2.12-.26-3.14-.06-1.02-.09-1.98-.09-2.87v-54.38h10.68Z" />
        <path class="cls-2"
          d="m754.98,429.96v31.14c-4.18,2.89-8.61,5.05-13.32,6.48-4.71,1.42-9.84,2.14-15.39,2.14-6.66,0-12.68-1-18.05-3-5.38-2.01-9.96-4.8-13.75-8.4-3.79-3.6-6.7-7.9-8.75-12.9-2.05-5.01-3.07-10.51-3.07-16.51s.98-11.58,2.95-16.6c1.97-5.02,4.79-9.32,8.47-12.9s8.12-6.36,13.35-8.34,11.08-2.97,17.59-2.97c3.29,0,6.34.24,9.16.72,2.81.48,5.42,1.17,7.83,2.06s4.64,1.95,6.69,3.2c2.05,1.24,3.95,2.64,5.71,4.2l-3.5,5.34c-.53.85-1.24,1.39-2.12,1.61-.88.22-1.84.02-2.87-.61-.99-.56-2.09-1.2-3.3-1.95-1.21-.74-2.64-1.42-4.31-2.06-1.66-.63-3.61-1.17-5.83-1.61-2.22-.45-4.84-.67-7.86-.67-4.51,0-8.59.72-12.22,2.14-3.64,1.43-6.74,3.48-9.3,6.15-2.56,2.67-4.54,5.88-5.91,9.65-1.38,3.76-2.07,7.98-2.07,12.65s.73,9.28,2.19,13.15c1.45,3.88,3.51,7.16,6.17,9.84,2.66,2.69,5.89,4.74,9.7,6.15s8.07,2.11,12.77,2.11c1.84,0,3.55-.1,5.14-.3,1.59-.2,3.11-.49,4.56-.87,1.45-.37,2.86-.83,4.22-1.39,1.35-.55,2.7-1.17,4.05-1.83v-16.74h-12.17c-.77,0-1.39-.22-1.87-.66-.48-.45-.72-1.01-.72-1.67v-6.73h25.83Z" />
        <path class="cls-2"
          d="m816.4,401.99c-.38.63-.79,1.1-1.2,1.39-.42.3-.96.45-1.61.45-.69,0-1.47-.31-2.35-.92-.88-.61-1.98-1.3-3.3-2.06-1.32-.76-2.9-1.44-4.73-2.05-1.84-.62-4.04-.92-6.6-.92-2.41,0-4.53.3-6.34.92-1.82.61-3.34,1.44-4.56,2.5-1.22,1.06-2.15,2.3-2.78,3.73-.63,1.42-.95,2.97-.95,4.64,0,2.15.56,3.93,1.69,5.34s2.61,2.62,4.45,3.62,3.92,1.87,6.26,2.61c2.33.74,4.72,1.51,7.18,2.31,2.45.8,4.84,1.72,7.17,2.75,2.34,1.04,4.43,2.35,6.26,3.93,1.84,1.58,3.32,3.5,4.45,5.78s1.7,5.07,1.7,8.37c0,3.52-.62,6.82-1.87,9.9-1.24,3.08-3.05,5.76-5.43,8.06-2.37,2.3-5.29,4.11-8.75,5.43-3.47,1.31-7.4,1.97-11.8,1.97-2.64,0-5.2-.25-7.69-.75-2.49-.5-4.84-1.2-7.07-2.11-2.22-.91-4.29-2.01-6.23-3.29-1.93-1.28-3.66-2.72-5.19-4.31l3.5-5.67c.34-.45.76-.81,1.23-1.11.48-.3,1.02-.45,1.64-.45.8,0,1.73.41,2.79,1.22,1.05.82,2.35,1.72,3.9,2.7,1.55.98,3.4,1.88,5.57,2.7,2.16.81,4.79,1.22,7.89,1.22,2.53,0,4.79-.32,6.77-.97,1.99-.65,3.66-1.58,5.02-2.78,1.35-1.2,2.4-2.66,3.13-4.37s1.09-3.59,1.09-5.67c0-2.34-.55-4.25-1.66-5.73s-2.58-2.73-4.42-3.73-3.93-1.86-6.26-2.56-4.73-1.44-7.18-2.2c-2.45-.76-4.84-1.64-7.18-2.64-2.33-1-4.42-2.31-6.25-3.92-1.84-1.61-3.31-3.63-4.43-6.06-1.1-2.43-1.66-5.43-1.66-8.98,0-2.86.58-5.62,1.72-8.29,1.15-2.67,2.83-5.03,5.02-7.09s4.91-3.7,8.12-4.95c3.22-1.24,6.89-1.86,11.02-1.86,4.63,0,8.89.71,12.77,2.14,3.88,1.42,7.26,3.48,10.13,6.15l-2.98,5.61Z" />
      </g>
      <path class="cls-3"
        d="m265.34,64.9v7.6c0,1.48-1.56,2.43-2.87,1.75L144.88,13.68c-.42-.18-.89-.42-1.31-.6-.3-.18-.65-.3-.95-.42-.12-.06-.3-.12-.42-.18-.24-.06-.48-.18-.77-.24-.89-.3-1.79-.6-2.68-.77-4.17-1.01-8.52-1.01-12.68,0-2.08.48-4.17,1.25-6.13,2.26L2.87,74.01c-1.31.68-2.87-.28-2.87-1.75v-7.6c0-.74.41-1.41,1.07-1.75L115.04,4.21c1.37-.71,2.8-1.31,4.23-1.85,1.55-.6,3.1-1.07,4.7-1.49.89-.18,1.79-.3,2.62-.48.83-.12,1.67-.24,2.56-.3,1.67-.12,3.39-.12,5.12-.06.6,0,1.13.06,1.67.12,1.07.06,2.14.24,3.16.42,1.49.24,2.92.6,4.29,1.01.71.24,1.43.48,2.14.71.06,0,.12.06.18.06h.06c.18.12.36.18.54.24,1.19.48,2.32.95,3.45,1.55l114.51,59c.66.34,1.07,1.01,1.07,1.75Z" />
    </g>
  </g>
</svg>